<svg xmlns="http://www.w3.org/2000/svg">
  <g id="mode_connect">
    <!-- Generator: Adobe Illustrator 24.0.1, SVG Export Plug-In  -->
<svg version="1.1" xmlns="http://www.w3.org/2000/svg" xmlns:xlink="http://www.w3.org/1999/xlink" x="0px" y="0px" width="100px"
	 height="100px" viewBox="0 0 100 100" style="enable-background:new 0 0 100 100;" xml:space="preserve">
<style type="text/css">
	.st0{fill:#EAEAEA;}
	.st1{fill:none;}
</style>
<defs>
</defs>
<g>
	<g>
		<path class="st0" d="M45.9,53.3c0.2,0,0.5-0.1,0.7-0.3l3.3-3.3l0.7,0.7c0.2,0.2,0.4,0.3,0.7,0.3c0.2,0,0.5-0.1,0.7-0.3
			c0.4-0.4,0.4-0.9,0-1.3l-2.6-2.6c-0.4-0.4-0.9-0.4-1.3,0c-0.4,0.4-0.4,0.9,0,1.3l0.7,0.7l-3.3,3.3c-0.4,0.4-0.4,0.9,0,1.3
			C45.4,53.2,45.6,53.3,45.9,53.3z"/>
		<path class="st0" d="M78.7,14.3L78,15c0,0,0,0,0,0c-1.7-1.8-4.8-1.8-6.6,0L60.9,25.5c-0.4,0.4-0.4,0.9,0,1.3
			c0.2,0.2,0.4,0.3,0.7,0.3c0.2,0,0.5-0.1,0.7-0.3l10.5-10.5c1.1-1.1,2.9-1.1,3.9,0c0,0,0,0,0,0l-7.9,7.9l5.2,5.2l9.8-9.8L78.7,14.3
			z"/>
		<rect x="48.7" y="33.2" transform="matrix(0.7072 -0.707 0.707 0.7072 -8.1863 54.1413)" class="st0" width="25" height="7.4"/>
		<path class="st0" d="M55.4,70L32.8,38.3h11.8V22.5H16.1v15.8h14.3c0,0.1,0.1,0.2,0.1,0.3l22.9,32h-12v15.8h28.4V70.5H55.6
			C55.6,70.3,55.6,70.1,55.4,70z"/>
	</g>
	<rect class="st1" width="100" height="100"/>
</g>
</svg>
  </g>
  <g id="svg_eof"/>
</svg>
